<svg id="Layer_1" data-name="Layer 1" xmlns="http://www.w3.org/2000/svg" viewBox="0 0 129.04 112.94"><defs><style>.cls-1{fill:none;stroke:#000;stroke-miterlimit:10;stroke-width:0.31px;}</style></defs><path class="cls-1" d="M72,46.37l-18.62-1L59.11,29l-7.43-7.4L64.84,4.7m55.3,38.63M42.42,70.66.15,38.61l5.93,19,16,10.92,9.81-4,7.55,7.2,11.69,7.41,14,33.39L78.87,75.7h27l7-9L117.63,62l6.13-4.38,5.11-18.78L106.16,14.34,75.3.16,35.2,1.74,12.18,19l-11,17.36s4,1.63,6.06-1M39.09,6.87V21.7H16.87l-5,19M81,60.7H48.87L25.62,35.8,11.87,49.7M86.63,64l12-7,3.18-17.66L91.87,42.7,81,22.45l6.84-2.66,5.08,9.91,12.48-4.62M55.4,78.57,64.87,95.7,61.82,93l3.05,10.73,5-16m21-19-20,3v10m-23-13,11-2,6,7m-24-33,9-8-7.45-3.24L30.87,31.7m17-20.12-3,11.12m35-11.12L67.07,22.7l7.8,15,4-1.9L85.63,56m21.79-21,12.45,5.62-12,10m-4.22,20-2-6.63,13-7"/></svg>